<svg xmlns="http://www.w3.org/2000/svg" viewBox="0 0 900 700" width="900" height="700">
  <style>
    .pencil {
      fill: none;
      stroke: #4a4a4a;
      stroke-width: 1.8;
      stroke-linecap: round;
      stroke-linejoin: round;
    }
    .light {
      fill: none;
      stroke: #8a8a8a;
      stroke-width: 0.8;
      stroke-linecap: round;
    }
    .heavy {
      fill: none;
      stroke: #3a3a3a;
      stroke-width: 2.5;
      stroke-linecap: round;
      stroke-linejoin: round;
    }
    .arch {
      fill: none;
      stroke: #c0b8a8;
      stroke-width: 1.2;
      stroke-linecap: round;
    }
    .column {
      fill: none;
      stroke: #b0a898;
      stroke-width: 1.0;
    }
    .detail {
      fill: none;
      stroke: #d0c8b8;
      stroke-width: 0.5;
    }
  </style>

  <!-- ═══════════════════════════════════════════ -->
  <!-- THE BUILDING — grand Roman interior         -->
  <!-- Columns, arches, marble, grandeur           -->
  <!-- Everything stately and old                  -->
  <!-- ═══════════════════════════════════════════ -->

  <!-- Coffered ceiling suggestion -->
  <path class="detail" d="M 0,0 L 450,80 L 900,0" />
  <path class="detail" d="M 100,0 L 450,65 L 800,0" />
  <path class="detail" d="M 200,0 L 450,50 L 700,0" />
  <!-- Horizontal ceiling lines -->
  <path class="detail" d="M 50,15 L 850,15" />
  <path class="detail" d="M 120,30 L 780,30" />
  <path class="detail" d="M 180,45 L 720,45" />

  <!-- LEFT COLUMN — massive, Corinthian -->
  <path class="column" d="M 80,85 L 80,600" />
  <path class="column" d="M 140,85 L 140,600" />
  <!-- Column fluting -->
  <path class="detail" d="M 92,85 L 92,600" />
  <path class="detail" d="M 104,85 L 104,600" />
  <path class="detail" d="M 116,85 L 116,600" />
  <path class="detail" d="M 128,85 L 128,600" />
  <!-- Capital -->
  <path class="column" d="M 65,85 L 155,85" />
  <path class="column" d="M 70,78 L 150,78" />
  <!-- Acanthus leaves suggestion -->
  <path class="detail" d="M 78,85 C 75,78 78,72 82,78" />
  <path class="detail" d="M 95,85 C 92,76 95,70 100,76" />
  <path class="detail" d="M 112,85 C 109,76 112,70 116,76" />
  <path class="detail" d="M 130,85 C 127,76 130,70 134,76" />
  <!-- Base -->
  <path class="column" d="M 68,600 L 152,600" />
  <path class="column" d="M 72,608 L 148,608" />

  <!-- RIGHT COLUMN -->
  <path class="column" d="M 760,85 L 760,600" />
  <path class="column" d="M 820,85 L 820,600" />
  <path class="detail" d="M 772,85 L 772,600" />
  <path class="detail" d="M 784,85 L 784,600" />
  <path class="detail" d="M 796,85 L 796,600" />
  <path class="detail" d="M 808,85 L 808,600" />
  <!-- Capital -->
  <path class="column" d="M 745,85 L 835,85" />
  <path class="column" d="M 750,78 L 830,78" />
  <path class="detail" d="M 758,85 C 755,78 758,72 762,78" />
  <path class="detail" d="M 775,85 C 772,76 775,70 780,76" />
  <path class="detail" d="M 792,85 C 789,76 792,70 796,76" />
  <path class="detail" d="M 810,85 C 807,76 810,70 814,76" />
  <!-- Base -->
  <path class="column" d="M 748,600 L 832,600" />
  <path class="column" d="M 752,608 L 828,608" />

  <!-- ARCH between columns -->
  <path class="arch" d="
    M 140,85
    C 140,30 300,0 450,0
    C 600,0 760,30 760,85
  " />
  <!-- Inner arch -->
  <path class="detail" d="
    M 155,85
    C 155,40 310,12 450,12
    C 590,12 745,40 745,85
  " />

  <!-- Back wall — ornate panel -->
  <rect x="200" y="100" width="500" height="400" fill="none" stroke="#d8d0c0" stroke-width="0.6" rx="3" />
  <rect x="220" y="120" width="460" height="360" fill="none" stroke="#e0d8c8" stroke-width="0.4" rx="2" />

  <!-- Back wall decorative elements -->
  <!-- Roman eagle / SPQR suggestion high up -->
  <text style="font-family: 'Georgia', serif; font-size: 18px; fill: #d0c8b8; letter-spacing: 8px;" x="450" y="155" text-anchor="middle">S P Q R</text>

  <!-- Laurel wreath below SPQR -->
  <path class="detail" d="M 415,165 C 420,172 430,178 440,180 C 445,178 448,175 450,170" />
  <path class="detail" d="M 485,165 C 480,172 470,178 460,180 C 455,178 452,175 450,170" />

  <!-- Decorative pilasters on back wall -->
  <path class="detail" d="M 230,130 L 230,470" />
  <path class="detail" d="M 240,130 L 240,470" />
  <path class="detail" d="M 660,130 L 660,470" />
  <path class="detail" d="M 670,130 L 670,470" />

  <!-- Floor — marble tiles in perspective -->
  <path class="column" d="M 0,600 L 900,600" />
  <!-- Tile lines converging to vanishing point -->
  <path class="detail" d="M 0,600 L 450,500" />
  <path class="detail" d="M 150,600 L 450,520" />
  <path class="detail" d="M 300,600 L 450,540" />
  <path class="detail" d="M 450,600 L 450,500" />
  <path class="detail" d="M 600,600 L 450,540" />
  <path class="detail" d="M 750,600 L 450,520" />
  <path class="detail" d="M 900,600 L 450,500" />
  <!-- Horizontal floor lines -->
  <path class="detail" d="M 80,570 L 820,570" />
  <path class="detail" d="M 160,545 L 740,545" />
  <path class="detail" d="M 230,525 L 670,525" />
  <path class="detail" d="M 300,510 L 600,510" />

  <!-- Toppled statue / debris on the floor -->
  <!-- Broken bust on the ground -->
  <path class="light" d="M 620,575 C 625,565 632,560 640,562 C 648,560 655,565 658,575" />
  <path class="light" d="M 630,562 L 632,555 L 636,555 L 638,562" />
  <!-- Crack -->
  <path class="light" d="M 638,568 L 642,572" />

  <!-- Scrolls scattered -->
  <path class="light" d="M 570,582 C 575,578 582,578 585,582 L 585,590 C 582,594 575,594 570,590 Z" />
  <path class="light" d="M 575,585 L 582,585" />

  <!-- ═══════════════════════════════════════════ -->
  <!-- THE BARBARIAN — center stage, iconic        -->
  <!-- Viking horns, face paint, fur, wild         -->
  <!-- Standing in the middle of all this grandeur -->
  <!-- ═══════════════════════════════════════════ -->

  <!-- HORNED HELMET -->
  <!-- Helmet base -->
  <path class="heavy" d="
    M 388,220
    C 384,208 388,194 400,186
    C 412,180 428,178 440,180
    C 452,178 468,180 480,186
    C 492,194 496,208 492,220
    L 492,240
    L 388,240
    Z
  " />

  <!-- LEFT HORN — big, curving -->
  <path class="heavy" d="
    M 392,200
    C 378,185 358,168 340,155
    C 325,145 312,140 305,142
    C 300,145 302,152 310,158
  " />
  <!-- Horn ridges -->
  <path class="light" d="M 382,192 C 372,182 362,174 352,166" />
  <path class="light" d="M 375,188 C 365,178 355,170 345,162" />
  <path class="light" d="M 368,184 C 358,174 348,166 338,158" />

  <!-- RIGHT HORN — big, curving -->
  <path class="heavy" d="
    M 488,200
    C 502,185 522,168 540,155
    C 555,145 568,140 575,142
    C 580,145 578,152 570,158
  " />
  <!-- Horn ridges -->
  <path class="light" d="M 498,192 C 508,182 518,174 528,166" />
  <path class="light" d="M 505,188 C 515,178 525,170 535,162" />
  <path class="light" d="M 512,184 C 522,174 532,166 542,158" />

  <!-- Helmet band -->
  <path class="pencil" d="M 390,228 L 490,228" />
  <!-- Nose guard -->
  <path class="pencil" d="M 440,228 L 440,260" />

  <!-- HEAD / FACE -->
  <path class="pencil" d="
    M 395,240
    C 392,255 390,272 392,288
    C 395,305 408,318 440,325
    C 472,318 485,305 488,288
    C 490,272 488,255 485,240
  " />

  <!-- FACE PAINT — war stripes across eyes -->
  <!-- Thick horizontal band across the eyes -->
  <path class="heavy" d="M 398,262 C 410,258 425,256 440,258 C 455,256 470,258 482,262" />
  <path class="heavy" d="M 400,272 C 412,276 427,278 440,276 C 453,278 468,276 480,272" />

  <!-- Eyes — wild, intense, visible through paint -->
  <ellipse class="pencil" cx="420" cy="268" rx="10" ry="7" />
  <ellipse class="pencil" cx="460" cy="268" rx="10" ry="7" />
  <!-- Pupils — big, manic -->
  <circle cx="420" cy="268" r="4" fill="#4a4a4a" stroke="none" />
  <circle cx="460" cy="268" r="4" fill="#4a4a4a" stroke="none" />
  <!-- Highlight dots -->
  <circle cx="418" cy="266" r="1.5" fill="white" stroke="none" />
  <circle cx="458" cy="266" r="1.5" fill="white" stroke="none" />

  <!-- More face paint stripes -->
  <path class="pencil" d="M 420,282 L 415,298" />
  <path class="pencil" d="M 435,284 L 432,300" />
  <path class="pencil" d="M 450,284 L 448,300" />
  <path class="pencil" d="M 462,282 L 465,298" />

  <!-- Nose -->
  <path class="pencil" d="M 440,272 L 436,290 C 432,296 430,298 428,296" />
  <path class="light" d="M 436,290 C 440,296 444,298 448,296" />

  <!-- Mouth — open, yelling / war cry -->
  <path class="heavy" d="
    M 418,308
    C 425,316 435,320 440,318
    C 445,320 455,316 462,308
  " />
  <path class="heavy" d="
    M 418,308
    C 422,320 432,328 440,330
    C 448,328 458,320 462,308
  " />
  <!-- Teeth -->
  <line class="pencil" x1="425" y1="312" x2="455" y2="312" />
  <path class="light" d="M 428,308 L 428,316" />
  <path class="light" d="M 436,308 L 436,316" />
  <path class="light" d="M 444,308 L 444,316" />
  <path class="light" d="M 452,308 L 452,316" />

  <!-- BEARD — wild, braided -->
  <path class="pencil" d="
    M 408,310
    C 405,325 402,342 400,360
    C 398,375 400,385 405,392
  " />
  <path class="pencil" d="
    M 472,310
    C 475,325 478,342 480,360
    C 482,375 480,385 475,392
  " />
  <!-- Beard braids -->
  <path class="pencil" d="M 415,325 C 418,345 420,365 418,385" />
  <path class="pencil" d="M 465,325 C 462,345 460,365 462,385" />
  <!-- Center braid -->
  <path class="pencil" d="M 440,330 C 440,350 440,370 440,395" />
  <!-- Braid bands -->
  <path class="light" d="M 414,345 L 422,345" />
  <path class="light" d="M 414,365 L 422,365" />
  <path class="light" d="M 436,355 L 444,355" />
  <path class="light" d="M 436,375 L 444,375" />
  <path class="light" d="M 458,345 L 466,345" />
  <path class="light" d="M 458,365 L 466,365" />

  <!-- NECK — thick -->
  <path class="pencil" d="M 410,318 C 405,330 398,342 395,355" />
  <path class="pencil" d="M 470,318 C 475,330 482,342 485,355" />

  <!-- SHOULDERS + FUR CLOAK -->
  <path class="heavy" d="
    M 395,355
    C 365,368 330,385 300,405
    C 280,418 268,432 262,448
  " />
  <path class="heavy" d="
    M 485,355
    C 515,368 550,385 580,405
    C 600,418 612,432 618,448
  " />

  <!-- Fur texture on shoulders -->
  <!-- Left shoulder fur tufts -->
  <path class="pencil" d="M 380,368 C 375,362 368,360 365,365" />
  <path class="pencil" d="M 360,378 C 355,372 348,370 345,375" />
  <path class="pencil" d="M 340,390 C 335,384 328,382 325,387" />
  <path class="pencil" d="M 320,402 C 315,396 308,394 305,399" />
  <path class="pencil" d="M 300,414 C 295,408 288,406 285,411" />

  <!-- Right shoulder fur tufts -->
  <path class="pencil" d="M 500,368 C 505,362 512,360 515,365" />
  <path class="pencil" d="M 520,378 C 525,372 532,370 535,375" />
  <path class="pencil" d="M 540,390 C 545,384 552,382 555,387" />
  <path class="pencil" d="M 560,402 C 565,396 572,394 575,399" />
  <path class="pencil" d="M 580,414 C 585,408 592,406 595,411" />

  <!-- Chest — bare with paint/tattoos -->
  <path class="heavy" d="
    M 300,405
    C 290,435 285,468 290,500
    C 300,525 340,545 440,550
    C 540,545 580,525 590,500
    C 595,468 590,435 580,405
  " />

  <!-- Chest paint — tribal patterns -->
  <!-- V pattern down center -->
  <path class="pencil" d="M 400,390 L 440,450 L 480,390" />
  <path class="pencil" d="M 410,400 L 440,440 L 470,400" />
  <!-- Spiral on left pec -->
  <path class="light" d="M 360,420 C 355,415 350,420 355,428 C 360,435 370,432 368,425 C 366,418 358,418 360,420" />
  <!-- Spiral on right pec -->
  <path class="light" d="M 520,420 C 525,415 530,420 525,428 C 520,435 510,432 512,425 C 514,418 522,418 520,420" />

  <!-- Belt with skull buckle -->
  <path class="pencil" d="M 295,498 C 340,508 390,512 440,512 C 490,512 540,508 585,498" />
  <path class="pencil" d="M 295,506 C 340,516 390,520 440,520 C 490,520 540,516 585,506" />
  <!-- Skull buckle -->
  <path class="pencil" d="
    M 428,500
    C 425,496 428,490 435,488
    C 440,486 445,486 450,488
    C 456,490 458,496 456,500
    C 454,505 448,508 442,508
    C 436,508 430,505 428,500
  " />
  <!-- Skull eyes -->
  <circle cx="436" cy="496" r="2.5" fill="#4a4a4a" stroke="none" />
  <circle cx="448" cy="496" r="2.5" fill="#4a4a4a" stroke="none" />
  <!-- Skull nose -->
  <path class="light" d="M 440,500 L 442,504 L 444,500" />

  <!-- LEFT ARM — holding a spear/standard with fur -->
  <path class="pencil" d="
    M 300,410
    C 280,425 262,445 252,465
    C 245,480 242,495 244,508
  " />
  <path class="pencil" d="
    M 310,418
    C 292,432 276,450 268,468
    C 262,482 260,496 262,508
  " />
  <!-- Hand gripping spear shaft -->
  <path class="pencil" d="
    M 244,508
    C 240,515 242,522 248,524
    C 254,526 260,522 262,516
    L 262,508
  " />

  <!-- SPEAR — tall, vertical, with fur/feathers -->
  <path class="heavy" d="M 252,524 L 252,130" />
  <!-- Spear point -->
  <path class="pencil" d="M 252,130 L 244,110 L 252,85 L 260,110 L 252,130" />
  <!-- Feathers/fur hanging from spear -->
  <path class="light" d="M 252,140 C 240,145 235,155 238,165" />
  <path class="light" d="M 252,140 C 242,148 238,158 242,168" />
  <path class="light" d="M 252,145 C 262,150 268,160 265,170" />
  <path class="light" d="M 252,145 C 260,152 264,162 260,172" />

  <!-- RIGHT ARM — raised, fist pump / war cry -->
  <path class="pencil" d="
    M 580,410
    C 598,395 618,378 635,362
    C 648,350 658,340 662,332
  " />
  <path class="pencil" d="
    M 575,418
    C 594,404 614,388 630,374
    C 644,362 654,352 658,344
  " />
  <!-- Raised fist -->
  <path class="pencil" d="
    M 662,332
    C 668,326 672,324 676,328
    C 680,332 678,338 674,342
    C 670,346 664,346 658,344
  " />
  <path class="pencil" d="M 668,328 C 672,322 676,320 680,324" />

  <!-- LEGS — fur pants, boots -->
  <path class="pencil" d="
    M 360,520
    C 350,545 342,570 338,590
    C 336,600 336,608 338,615
  " />
  <path class="pencil" d="
    M 395,520
    C 388,545 382,570 380,590
    C 378,600 380,608 382,615
  " />

  <path class="pencil" d="
    M 485,520
    C 492,545 498,570 502,590
    C 504,600 504,608 502,615
  " />
  <path class="pencil" d="
    M 520,520
    C 530,545 538,570 542,590
    C 544,600 542,608 540,615
  " />

  <!-- Fur boot wrappings -->
  <path class="light" d="M 340,580 L 380,578" />
  <path class="light" d="M 342,590 L 378,588" />
  <path class="light" d="M 344,600 L 376,598" />
  <path class="light" d="M 502,580 L 540,578" />
  <path class="light" d="M 500,590 L 542,588" />
  <path class="light" d="M 498,600 L 544,598" />

  <!-- Boots -->
  <path class="pencil" d="M 332,615 C 328,620 322,622 318,618 L 386,618" />
  <path class="pencil" d="M 496,615 C 500,620 510,624 520,622 L 546,618" />

  <!-- ═══════════════════════════════════════════ -->
  <!-- MUDDY FOOTPRINTS on the marble floor        -->
  <!-- trailing behind him                         -->
  <!-- ═══════════════════════════════════════════ -->
  <ellipse cx="440" cy="640" rx="16" ry="8" fill="none" stroke="#c0b8a8" stroke-width="0.8" />
  <ellipse cx="410" cy="660" rx="14" ry="7" fill="none" stroke="#c8c0b0" stroke-width="0.6" />
  <ellipse cx="445" cy="678" rx="12" ry="6" fill="none" stroke="#d0c8b8" stroke-width="0.5" />
  <ellipse cx="415" cy="692" rx="10" ry="5" fill="none" stroke="#d8d0c0" stroke-width="0.4" />

  <!-- ═══════════════════════════════════════════ -->
  <!-- OVERTURNED OBJECTS — civilization trampled   -->
  <!-- ═══════════════════════════════════════════ -->

  <!-- Toppled candelabra on the left -->
  <path class="light" d="M 170,580 L 210,555 L 215,545 L 220,548 L 218,558 L 225,552 L 230,555 L 224,565" />
  <path class="light" d="M 170,580 L 168,590" />

  <!-- Torn banner/curtain on right -->
  <path class="light" d="M 700,200 C 705,250 702,300 698,350 C 695,380 690,410 688,430" />
  <path class="light" d="M 720,200 C 722,250 718,300 714,350 C 710,380 705,410 702,430" />
  <path class="light" d="M 688,430 C 692,440 698,442 702,430" />
  <!-- Torn edge -->
  <path class="light" d="M 700,280 L 708,285 L 702,292 L 712,298" />

</svg>